<?xml version="1.0" encoding="UTF-8" standalone="no"?>
<svg
   xmlns:dc="http://purl.org/dc/elements/1.1/"
   xmlns:cc="http://creativecommons.org/ns#"
   xmlns:rdf="http://www.w3.org/1999/02/22-rdf-syntax-ns#"
   xmlns:svg="http://www.w3.org/2000/svg"
   xmlns="http://www.w3.org/2000/svg"
   xmlns:sodipodi="http://sodipodi.sourceforge.net/DTD/sodipodi-0.dtd"
   xmlns:inkscape="http://www.inkscape.org/namespaces/inkscape"
   width="480"
   height="570"
   viewBox="0 0 480 570"
   id="svg3035"
   version="1.1"
   inkscape:version="0.48.4 r9939"
   sodipodi:docname="b-em.png">
  <metadata
     id="metadata3083">
    <rdf:RDF>
      <cc:Work
         rdf:about="">
        <dc:format>image/svg+xml</dc:format>
        <dc:type
           rdf:resource="http://purl.org/dc/dcmitype/StillImage" />
        <dc:title></dc:title>
      </cc:Work>
    </rdf:RDF>
  </metadata>
  <defs
     id="defs3081" />
  <sodipodi:namedview
     pagecolor="#ffffff"
     bordercolor="#666666"
     borderopacity="1"
     objecttolerance="10"
     gridtolerance="10"
     guidetolerance="10"
     inkscape:pageopacity="0"
     inkscape:pageshadow="2"
     inkscape:window-width="726"
     inkscape:window-height="674"
     id="namedview3079"
     showgrid="true"
     inkscape:zoom="0.5"
     inkscape:cx="491.32348"
     inkscape:cy="285"
     inkscape:window-x="335"
     inkscape:window-y="17"
     inkscape:window-maximized="0"
     inkscape:current-layer="svg3035">
    <inkscape:grid
       type="xygrid"
       id="grid3085" />
  </sodipodi:namedview>
  <style
     type="text/css"
     id="style3037">
		rect { fill: #240202; stroke: none; }
		circle, path { fill: #FFFFD6; stroke: none; }
	</style>
  <rect
     width="570"
     height="570"
     id="rect3039"
     inkscape:export-xdpi="7.5"
     inkscape:export-ydpi="7.5"
     x="-45"
     y="0"
     style="fill:#240202;stroke:none"
     inkscape:export-filename="C:\Users\Samwise\Desktop\B-em\icon\b-em.png" />
  <g
     transform="translate(-5,-2)"
     id="g3041"
     inkscape:export-filename="C:\Users\Samwise\Desktop\B-em\icon\b-em.png"
     inkscape:export-xdpi="7.5"
     inkscape:export-ydpi="7.5">
    <circle
       cx="149.01"
       cy="48.59"
       r="17.55"
       id="circle3043" />
    <circle
       cx="339.09"
       cy="48.59"
       r="17.55"
       id="circle3045" />
    <circle
       cx="291.57"
       cy="238.67"
       r="17.55"
       id="circle3047" />
    <circle
       cx="434.13"
       cy="238.67"
       r="17.55"
       id="circle3049" />
    <circle
       cx="434.13"
       cy="286.19"
       r="17.55"
       id="circle3051" />
    <circle
       cx="434.13"
       cy="333.71"
       r="17.55"
       id="circle3053" />
    <circle
       cx="434.13"
       cy="381.23"
       r="17.55"
       id="circle3055" />
    <circle
       cx="434.13"
       cy="428.75"
       r="17.55"
       id="circle3057" />
    <circle
       cx="125.26"
       cy="500.03"
       r="17.55"
       id="circle3059" />
    <circle
       cx="77.74"
       cy="500.03"
       r="17.55"
       id="circle3061" />
    <path
       d="M101.5,31.04c-5.19,0-10.29,2.48-13.55,6.5c-1.74,2.14-2.94,4.7-3.52,7.39c-0.54,2.54-0.28,5.41-1.93,7.59 c-2.69,3.56-8.69,2.41-10.41-1.51c-1.06-2.43-0.65-5.2-1.36-7.72c-0.75-2.65-2.34-5.07-4.3-6.98c-6.46-6.3-17.77-6.77-24.42-0.5 c-6.67,6.3-7.14,17.83-0.98,24.64c1.82,2.01,4.13,3.63,6.68,4.56c2.68,0.98,5.65,0.56,8.31,1.57c3.96,1.51,5.41,7.14,2.23,10.15 c-1.82,1.73-4.46,1.94-6.82,2.29c-2.84,0.43-5.61,1.3-7.95,3.02c-4.07,2.99-6.66,7.92-6.96,12.94 c-0.57,9.35,7.28,18.08,16.62,18.57c5.28,0.27,10.62-2.04,14.09-6.01c1.77-2.03,3.03-4.52,3.56-7.17 c0.53-2.63,0.33-5.73,2.08-7.95c1.53-1.94,3.98-2.41,6.28-2.75c2.81-0.42,5.55-0.96,7.99-2.51c4.24-2.69,7.01-7.42,7.79-12.33 c0.4-2.56,0.47-5.59,2.74-7.28c1.94-1.44,4.44-1.41,6.72-1.8c4.94-0.85,9.35-3.63,11.97-7.95c3.26-5.38,3.46-12.51,0.31-17.98 C113.63,34.51,107.62,31.04,101.5,31.04"
       id="path3063" />
    <path
       d="M434.13,78.56c-4.24-0.07-7.45-5.08-5.58-8.93c1.07-2.2,3.45-3.15,5.75-3.46c2.83-0.38,5.73-0.78,8.27-2.18 c7.78-4.27,11.22-14.85,7.44-22.88c-3.81-8.08-14.21-12.06-22.48-8.77c-4.58,1.82-8.45,5.71-9.98,10.43 c-0.85,2.62-0.45,5.49-1.44,8.06c-0.91,2.34-3.17,3.89-5.68,3.93c-2.42,0.04-4.74-1.46-5.73-3.66c-0.57-1.29-0.6-2.71-0.7-4.09 c-0.11-1.53-0.41-3.04-0.94-4.49c-1.72-4.72-5.64-8.56-10.34-10.29c-8.44-3.11-18.77,1.31-22.25,9.63 c-3.49,8.33,0.63,18.83,8.77,22.69c1.28,0.6,2.63,1.04,4.02,1.27c1.62,0.27,3.29,0.14,4.88,0.58c2.33,0.64,3.97,2.65,4.53,4.95 c0.72,2.92,0.66,5.99,1.94,8.77c1.14,2.47,2.98,4.61,5.14,6.25c2.17,1.65,4.75,2.84,7.46,3.23c2.51,0.36,5.43,0.13,7.39,2.05 c1.78,1.74,1.9,4.39,2.25,6.7c0.42,2.75,1.25,5.45,2.82,7.77c4.93,7.27,15.67,9.54,23.24,5.22c6.62-3.78,10.01-12.18,8.18-19.53 C449.24,84.23,441.88,78.56,434.13,78.56"
       id="path3065" />
    <path
       d="M434.13,506.24c-4.28-0.09-7.51-5.19-5.52-9.05c1.11-2.14,3.56-3.11,5.83-3.38c2.9-0.35,5.88-0.83,8.45-2.32 c7.72-4.48,10.98-15.22,6.88-23.18c-4.1-7.96-14.67-11.68-22.85-8.03c-4.54,2.03-8.37,6.05-9.6,10.93 c-0.68,2.68-0.21,5.68-1.64,8.16c-1.22,2.12-3.73,3.33-6.15,2.99c-2.38-0.33-4.31-2.1-5.12-4.33c-0.97-2.69-0.61-5.65-1.55-8.35 c-1.63-4.71-5.91-8.64-10.66-10.06c-2.74-0.82-5.86-0.23-8.44-1.63c-2.12-1.15-2.99-3.4-3.35-5.66c-0.47-2.96-0.94-5.84-2.42-8.5 c-1.34-2.4-3.25-4.46-5.57-5.93c-2.43-1.55-5.08-2.22-7.9-2.65c-2.5-0.38-5.21-0.87-6.7-3.13c-1.39-2.11-1.39-4.76-1.85-7.16 c-0.55-2.83-1.69-5.39-3.56-7.59c-1.79-2.11-4.06-3.8-6.67-4.74c-2.5-0.91-5.15-0.99-7.7-1.65c-2.69-0.7-4.31-2.45-4.99-5.13 c-0.71-2.8-0.64-5.75-1.84-8.42c-1.15-2.56-3.06-4.84-5.31-6.51c-2.41-1.79-5.07-2.57-8.01-2.96c-2.53-0.34-5.43-0.65-7.18-2.74 c-1.65-1.97-1.57-4.65-2.03-7.04c-0.98-5.15-3.96-9.66-8.57-12.25c-2.25-1.27-4.62-1.82-7.18-2.05c-2.5-0.22-5.18-0.68-6.48-3.09 c-1.14-2.1-1.03-4.64-1.58-6.91c-0.57-2.38-1.53-4.67-2.94-6.66c-1.48-2.1-3.45-3.81-5.71-5.03c-2.49-1.35-5.09-1.85-7.86-2.19 c-2.49-0.31-4.97-1.07-6.02-3.58c-0.99-2.36-0.71-5.06-1.41-7.5c-1.44-5.06-5.19-9.12-10.01-11.16c-2.32-0.98-4.69-1.3-7.15-1.72 c-2.44-0.42-4.65-1.47-5.49-3.96c-0.78-2.33-0.18-5.2,1.81-6.75c2.04-1.59,4.68-1.44,7.08-1.92c5.19-1.05,9.75-4.18,12.27-8.87 c2.5-4.64,2.72-10.28,0.67-15.13c-2.17-5.15-6.73-9.21-12.29-10.15c-2.65-0.45-5.62-0.43-7.75-2.3c-1.82-1.6-2.54-4.18-1.8-6.49 c0.83-2.57,3.15-3.8,5.65-4.26c2.74-0.51,5.39-0.66,7.95-1.87c4.27-2.01,7.39-5.85,8.7-10.36c2.54-8.76-1.89-18.66-10.74-21.59 c-8.94-2.96-19.63,1.75-22.43,10.99c-0.76,2.49-0.53,5.21-1.46,7.65c-0.91,2.39-3.17,3.85-5.71,3.8c-6.41-0.12-5.85-7.54-7.3-11.9 c-3.46-10.38-16.19-14.62-25.46-9.15c-4.41,2.6-7.25,7.08-8.1,12.09c-0.39,2.26-0.4,4.74-1.81,6.67c-1.49,2.05-4.35,2.8-6.73,2.04 c-2.46-0.79-3.62-3.04-4.15-5.42c-0.61-2.75-0.81-5.57-1.97-8.18c-2.04-4.6-6.54-8.1-11.42-9.16c-2.38-0.52-4.99-0.29-7.2-1.44 c-2.38-1.24-3.02-3.74-3.34-6.21c-0.66-5.08-2.6-9.83-6.76-13.04c-2.21-1.71-4.86-2.8-7.6-3.3c-2.31-0.42-4.94-0.28-6.92-1.72 c-2.24-1.63-2.31-4.49-2.58-6.99c-0.3-2.83-1.31-5.53-2.96-7.86c-3.07-4.34-8.01-6.71-13.17-7.5c-2.26-0.35-4.81-0.71-6.26-2.68 c-1.62-2.19-1.27-5.08-1.74-7.61c-0.9-4.9-4.53-9.39-9-11.53c-4.2-2.02-11.12-0.83-13.48-5.69c-0.86-1.78-1.02-3.82-1.29-5.75 c-0.3-2.07-0.82-3.94-1.91-5.74c-2.17-3.59-5.69-6.24-9.69-7.48c-8.44-2.61-17.86,1.42-21.31,9.68 c-3.65,8.75,0.59,20.3,10.04,23.22c2.76,0.85,5.85,0.63,8.49,1.89c2.31,1.09,3.69,3.37,3.44,5.94c-0.64,6.51-8.39,5.5-12.89,7.18 c-9.44,3.53-12.84,15.03-8.72,23.73c1.87,3.95,5.17,7.22,9.34,8.68c2.56,0.9,5.31,0.73,7.88,1.54c2.47,0.78,4.24,2.74,4.38,5.39 c0.13,2.59-1.29,5.01-3.67,6.06c-2.29,1.01-4.88,0.89-7.27,1.53c-4.71,1.25-8.63,4.47-10.78,8.84c-2.45,4.97-2.53,11,0.1,15.92 c2.3,4.3,6.48,7.58,11.25,8.68c2.64,0.61,5.69,0.5,7.99,2.12c1.94,1.37,2.81,3.76,2.38,6.07c-0.69,3.79-4.64,4.66-7.88,5.23 c-1.67,0.29-3.4,0.51-4.98,1.15c-2.31,0.93-4.36,2.43-6.01,4.29c-3.1,3.48-4.7,8.11-4.46,12.76c0.22,4.25,1.93,8.44,4.92,11.5 c1.52,1.55,3.35,2.79,5.37,3.6c2.75,1.11,5.75,0.88,8.54,1.78c2.12,0.68,3.61,2.34,4.25,4.45c0.87,2.9,0.92,5.92,2.15,8.73 c2.37,5.38,6.99,8.86,12.76,9.79c2.58,0.41,5.64,0.62,7.51,2.69c1.67,1.85,1.8,4.37,2.16,6.71c0.43,2.79,1.24,5.38,2.93,7.68 c1.57,2.15,3.68,4.03,6.1,5.18c2.48,1.17,5.16,1.42,7.81,1.94c2.45,0.47,4.71,1.49,5.81,3.87c1.12,2.45,0.93,5.24,1.65,7.8 c0.66,2.36,1.91,4.54,3.54,6.37c1.63,1.84,3.68,3.39,5.95,4.37c2.69,1.16,5.61,0.95,8.39,1.69c6.06,1.61,4.72,8.51,6.53,13.12 c1.94,4.97,6.79,8.91,11.99,9.98c2.62,0.54,5.77,0.11,7.95,1.95c1.82,1.54,2.17,4.05,2.47,6.27c0.72,5.33,3.03,10.11,7.7,13.03 c2.03,1.27,4.31,2.1,6.65,2.58c2.31,0.48,4.9,0.41,6.88,1.88c2.21,1.65,2.33,4.54,2.56,7.05c0.24,2.58,1.04,4.97,2.43,7.16 c2.54,4.02,6.42,6.65,11.11,7.36c3.64,0.55,8.23,0.85,9.57,4.99c0.8,2.46,0.04,5.33-2.14,6.82c-2.16,1.48-4.91,1.45-7.39,1.95 c-5.51,1.13-10.27,4.75-12.38,10.04c-1.02,2.55-1.17,5.21-1.78,7.85c-0.59,2.57-2.07,4.32-4.64,5.05 c-2.66,0.75-5.45,0.61-8.05,1.65c-2.54,1.02-4.79,2.7-6.53,4.8c-3.19,3.85-4.69,9.04-3.9,13.99c1.5,9.37,10.58,15.66,19.87,14.31 c4.16-0.61,8.11-2.65,10.85-5.87c1.39-1.63,2.44-3.55,3.06-5.61c0.74-2.47,0.58-5.12,1.45-7.55c0.84-2.37,2.88-3.97,5.42-4.07 c2.18-0.08,4.27,0.94,5.37,2.85c1.01,1.77,1.25,3.89,1.54,5.87c0.33,2.21,0.96,4.29,2.11,6.22c4.68,7.84,15.3,10.68,23.29,6.31 c8.26-4.51,11.43-15.1,7.13-23.44c-2.32-4.51-6.48-7.79-11.52-8.61c-2.67-0.44-5.74-0.47-7.86-2.39 c-1.75-1.59-2.44-4.14-1.76-6.41c0.78-2.59,3.02-3.79,5.54-4.24c2.76-0.5,5.4-0.7,7.97-1.94c4.58-2.22,8.24-6.47,9.26-11.52 c0.51-2.53,0.38-5.43,1.89-7.65c1.5-2.19,4.04-2.7,6.52-3.02c2.94-0.39,5.59-1.03,8.1-2.68c2.27-1.5,4.21-3.55,5.53-5.94 c1.49-2.7,1.67-5.61,2.27-8.57c0.48-2.37,1.52-4.69,3.87-5.7c2.17-0.93,4.87-0.47,6.58,1.17c2,1.92,2.09,4.91,2.5,7.47 c0.87,5.49,4.31,10.32,9.35,12.76c2.81,1.36,5.88,1.26,8.85,2.01c2.24,0.57,4.11,2.09,4.74,4.37c0.64,2.28-0.06,4.85-1.94,6.34 c-2.17,1.72-5.19,1.62-7.79,2.11c-5.37,1.01-10.09,4.91-12.14,9.97c-1.86,4.58-0.58,11.34-6.55,12.98 c-2.87,0.78-5.89,0.64-8.65,1.86c-1.92,0.84-3.65,2.08-5.08,3.6c-5.74,6.11-6.29,16.18-1.16,22.83c5.53,7.15,16.1,8.77,23.61,3.82 c2.18-1.44,4.05-3.37,5.32-5.67c1.45-2.62,1.7-5.53,2.32-8.41c0.52-2.43,1.5-5.07,4.01-6.02c2.34-0.88,5.25-0.17,6.87,1.75 c1.62,1.92,1.68,4.51,2,6.88c0.37,2.81,1.28,5.43,3.04,7.69c3.29,4.22,8.64,6.67,13.96,6.73c10.43,0.12,18.62-9.56,17.2-19.79 c-0.58-4.13-2.59-8.07-5.74-10.82c-1.59-1.39-3.46-2.46-5.47-3.1c-2.41-0.77-5-0.71-7.41-1.48c-2.4-0.77-4.29-2.61-4.56-5.21 c-0.21-1.95,0.53-4.01,2.12-5.21c2.91-2.21,6.99-1.71,10.29-2.94c4.56-1.7,8.56-5.52,10.12-10.17c0.93-2.76,0.63-5.79,1.75-8.5 c0.89-2.15,2.88-3.68,5.24-3.74c2.41-0.06,4.65,1.33,5.73,3.47c1.31,2.58,1.09,5.62,1.94,8.34c1.48,4.69,5.17,9.08,9.96,10.59 c2.59,0.82,5.38,0.74,7.95,1.63c2.54,0.88,4,2.67,4.59,5.26c0.64,2.77,0.75,5.64,1.92,8.27c1,2.24,2.6,4.23,4.51,5.76 c1.83,1.46,3.96,2.5,6.2,3.15c2.28,0.66,4.71,0.66,6.94,1.46c2.55,0.91,3.76,2.97,4.22,5.55c0.45,2.55,0.66,5.01,1.72,7.41 c2.08,4.68,6.21,8.29,11.19,9.52c2.51,0.62,5.31,0.49,7.64,1.69c2.53,1.31,3.14,3.98,3.47,6.59c0.71,5.51,3.14,10.45,7.99,13.45 c4.17,2.58,9.34,3.2,14.03,1.83c8.2-2.39,13.88-10.46,12.51-19.03C449.98,513.07,442.61,506.24,434.13,506.24 M83.67,288.01 c-0.96,3.1-4.58,5.07-7.7,4.14c-3.16-0.94-5.14-4.64-4.17-7.79c0.9-3.14,4.58-5.05,7.69-4.13 C82.65,281.17,84.63,284.85,83.67,288.01 M77.77,244.88c-3.27,0-6.23-2.9-6.24-6.18c-0.01-3.28,2.93-6.24,6.21-6.23 c3.27,0.01,6.21,2.94,6.2,6.21C83.93,241.93,81.03,244.86,77.77,244.88 M77.77,197.36c-3.27,0-6.23-2.9-6.24-6.18 c-0.01-3.28,2.92-6.24,6.21-6.23c3.27,0.01,6.21,2.93,6.2,6.21C83.93,194.41,81.03,197.34,77.77,197.36 M101.5,208.71 c3.34-0.19,6.2,2.96,6.2,6.2c0.01,3.26-2.9,6.2-6.16,6.21c-3.27,0.01-6.23-2.9-6.25-6.17C95.29,211.67,98.21,208.71,101.5,208.71  M107.43,311.77c-0.96,3.1-4.58,5.07-7.7,4.14c-3.15-0.94-5.14-4.62-4.17-7.77c0.93-3.12,4.58-5.07,7.69-4.14 C106.41,304.93,108.39,308.61,107.43,311.77 M101.53,268.64c-3.28,0-6.25-2.92-6.24-6.21c0.01-3.27,2.93-6.21,6.21-6.2 c3.26,0.02,6.21,2.93,6.2,6.21C107.68,265.68,104.79,268.62,101.53,268.64 M131.46,333.75c-0.02,3.21-2.87,6.09-6.07,6.17 c-3.28,0.09-6.25-2.8-6.34-6.06c-0.09-3.28,2.8-6.26,6.06-6.36C128.47,327.4,131.38,330.46,131.46,333.75 M125.29,292.4 c-3.28,0-6.25-2.92-6.24-6.21c0.01-3.27,2.93-6.21,6.21-6.2c3.26,0.01,6.21,2.93,6.2,6.21 C131.44,289.44,128.55,292.38,125.29,292.4 M125.29,244.88c-3.27,0-6.23-2.9-6.24-6.18c-0.01-3.28,2.93-6.24,6.21-6.23 c3.27,0.01,6.21,2.93,6.2,6.21C131.45,241.93,128.55,244.86,125.29,244.88 M155.22,357.51c-0.02,3.21-2.86,6.08-6.07,6.17 c-3.28,0.09-6.26-2.8-6.35-6.06c-0.09-3.28,2.79-6.26,6.05-6.36C152.23,351.16,155.14,354.21,155.22,357.51 M149.05,316.16 c-3.28,0-6.25-2.92-6.24-6.21c0.01-3.27,2.93-6.21,6.21-6.2c3.26,0.01,6.21,2.93,6.2,6.21 C155.2,313.2,152.31,316.14,149.05,316.16 M149.05,268.64c-3.28,0-6.25-2.92-6.24-6.21c0.01-3.27,2.94-6.21,6.21-6.2 c3.27,0.01,6.21,2.93,6.2,6.21C155.21,265.69,152.31,268.62,149.05,268.64 M166.56,333.59c0.07-3.28,3.08-6.13,6.35-6.09 c3.25,0.04,6.09,3.03,6.07,6.26c-0.02,3.28-3,6.16-6.26,6.15C169.41,339.91,166.56,336.86,166.56,333.59 M178.98,381.27 c-0.02,3.21-2.86,6.08-6.07,6.17c-3.31,0.09-6.29-2.85-6.35-6.14c-0.05-3.23,2.79-6.12,5.99-6.27 C175.95,374.86,178.9,377.95,178.98,381.27 M178.98,286.23c-0.02,3.28-2.98,6.18-6.25,6.17c-3.31-0.01-6.19-3.05-6.17-6.33 c0.02-3.29,3.11-6.1,6.35-6.08C176.19,280,178.9,283.04,178.98,286.23 M190.32,357.33c0.08-3.27,3.08-6.09,6.34-6.07 c3.26,0.02,6.09,3.02,6.08,6.25c-0.01,3.28-2.99,6.19-6.27,6.17C193.16,363.65,190.36,360.59,190.32,357.33 M196.57,411.2 c-3.28,0-6.25-2.91-6.24-6.21c0.01-3.24,2.88-6.17,6.13-6.2c3.2-0.03,6.12,2.73,6.27,5.93 C202.88,408.07,199.93,411.18,196.57,411.2 M196.57,316.16c-3.27,0-6.23-2.9-6.24-6.18c-0.01-3.28,2.93-6.24,6.21-6.23 c3.27,0.01,6.21,2.93,6.2,6.21C202.72,313.21,199.83,316.14,196.57,316.16 M196.57,268.64c-3.27,0-6.23-2.9-6.24-6.18 c-0.01-3.27,2.9-6.22,6.17-6.23c3.28-0.01,6.25,2.92,6.23,6.21C202.72,265.69,199.83,268.62,196.57,268.64 M220.33,434.96 c-3.27,0-6.23-2.9-6.24-6.18c-0.01-3.28,2.93-6.24,6.21-6.23c3.27,0.01,6.21,2.93,6.2,6.21 C226.48,432.01,223.59,434.94,220.33,434.96 M220.33,387.44c-3.27,0-6.23-2.9-6.24-6.18c-0.01-3.28,2.92-6.25,6.21-6.23 c3.25,0.02,6.19,2.9,6.2,6.16C226.51,384.46,223.6,387.42,220.33,387.44 M220.33,339.92c-3.27,0-6.23-2.9-6.24-6.18 c-0.01-3.28,2.93-6.24,6.22-6.23c3.27,0.01,6.2,2.93,6.19,6.21C226.49,336.97,223.59,339.9,220.33,339.92 M220.33,292.4 c-3.27,0-6.23-2.9-6.24-6.18c-0.01-3.28,2.93-6.24,6.22-6.23c3.27,0.01,6.2,2.93,6.19,6.21 C226.49,289.45,223.59,292.38,220.33,292.4 M244.05,411.19c-3.3,0.11-6.19-2.93-6.21-6.17c0-3.28,2.93-6.23,6.21-6.24 c3.26,0,6.19,2.9,6.21,6.16C250.28,408.23,247.34,411.19,244.05,411.19 M244.05,363.67c-3.26,0.01-6.18-2.9-6.21-6.15 c0.19-3.2,2.88-6.26,6.2-6.25c3.26,0.01,6.2,2.9,6.21,6.17C250.27,360.71,247.34,363.67,244.05,363.67 M267.81,387.43 c-3.28,0.02-6.21-2.94-6.2-6.21c0.01-3.27,2.94-6.2,6.21-6.2c3.25,0.01,6.17,2.9,6.2,6.16 C274.02,384.46,271.1,387.43,267.81,387.43 M309.13,428.75c0-3.27,2.94-6.21,6.21-6.21c3.25,0.01,6.19,2.9,6.2,6.15 c0.01,3.28-2.91,6.26-6.21,6.25C312.07,434.95,309.13,432.02,309.13,428.75 M291.57,411.19c-3.28,0.02-6.21-2.94-6.2-6.21 c0.01-3.27,2.94-6.2,6.21-6.2c3.25,0.01,6.17,2.9,6.2,6.16C297.78,408.22,294.86,411.19,291.57,411.19"
       id="path3067" />
    <path
       d="M291.57,31.04c-5.19,0-10.29,2.48-13.55,6.5c-1.74,2.14-2.94,4.7-3.52,7.39c-0.54,2.54-0.28,5.41-1.92,7.59 c-2.67,3.54-8.66,2.44-10.39-1.46c-1.07-2.41-0.66-5.17-1.36-7.68c-0.74-2.65-2.3-5.09-4.25-7.02 c-6.44-6.37-17.74-6.78-24.46-0.62c-2.04,1.87-3.71,4.32-4.59,6.96c-0.9,2.69-0.33,5.73-1.59,8.32c-1.84,3.78-7.51,4.9-10.33,1.57 c-1.65-1.95-1.56-4.63-1.92-7.02c-0.42-2.77-1.51-5.42-3.22-7.64c-3.1-4.01-8.02-6.59-13.1-6.78c-9.38-0.35-18.1,7.61-18.3,17.05 c-0.11,5.27,2.31,10.62,6.4,13.96c2.13,1.74,4.71,2.85,7.41,3.32c2.61,0.45,5.68,0.46,7.76,2.36c1.8,1.65,2.01,4.04,2.31,6.3 c0.37,2.83,1.19,5.52,2.78,7.91c1.48,2.22,3.47,4.19,5.82,5.47c2.46,1.34,5.2,1.75,7.92,2.19c2.43,0.4,4.85,1.19,6.11,3.48 c1.27,2.31,1.11,5.06,1.72,7.55c1.17,4.83,4.66,9,9.16,11.09c8.16,3.78,19.26,0.46,23.22-7.84c1.25-2.62,1.42-5.46,1.98-8.26 c0.5-2.53,1.74-4.56,4.29-5.4c2.57-0.85,5.34-0.63,7.9-1.54c2.64-0.94,5.03-2.58,6.91-4.64c1.83-2.01,3.29-4.5,3.92-7.16 c0.61-2.6,0.36-5.52,1.76-7.89c1.25-2.11,3.63-2.73,5.89-3.06c2.78-0.4,5.57-0.84,8.03-2.3c6.55-3.9,10.18-12.22,8.13-19.63 C306.46,36.72,299.27,31.04,291.57,31.04 M237.85,72.35c0.05-3.23,2.87-6.34,6.19-6.21c3.27,0,6.23,2.93,6.22,6.21 c-0.01,3.26-2.92,6.2-6.19,6.2C240.79,78.55,237.85,75.63,237.85,72.35"
       id="path3069" />
    <path
       d="M267.82,149.84c-5.19,0-10.29,2.48-13.55,6.5c-1.74,2.14-2.94,4.7-3.52,7.39c-0.54,2.54-0.28,5.41-1.93,7.59 c-2.69,3.56-8.69,2.41-10.41-1.51c-1.06-2.43-0.65-5.2-1.36-7.72c-0.75-2.65-2.34-5.07-4.3-6.98c-6.46-6.3-17.77-6.77-24.42-0.5 c-6.67,6.3-7.14,17.83-0.98,24.64c1.82,2.01,4.14,3.63,6.69,4.57c2.71,0.99,5.71,0.54,8.4,1.61c2.36,0.94,3.56,3.2,4.04,5.59 c0.56,2.78,0.7,5.67,2,8.24c4.03,8.02,14.78,11.4,22.84,7.78c4.48-2.01,8.26-6.05,9.46-10.86c0.62-2.5,0.34-5.24,1.48-7.61 c1.14-2.37,3.49-3.2,5.92-3.62c2.73-0.47,5.46-0.87,7.96-2.16c2.44-1.26,4.5-3.25,6.03-5.5c3.09-4.56,3.99-10.54,2.09-15.75 C281.81,154.81,275,149.84,267.82,149.84"
       id="path3071" />
    <path
       d="M186.32,108.71c-3.4-4.12-8.68-5.64-13.75-6.43c-2.29-0.35-4.66-1.53-5.51-3.83 c-0.51-1.37-0.45-2.85-0.61-4.28c-0.17-1.51-0.52-3-1.08-4.42c-3.33-8.41-13.66-13.25-22.22-10.18 c-4.66,1.67-8.49,5.43-10.37,9.99c-0.56,1.36-0.96,2.79-1.14,4.25c-0.18,1.51-0.13,3.07-0.68,4.51c-0.89,2.3-3.17,3.5-5.47,3.99 c-2.87,0.62-5.87,0.7-8.53,2.05c-2.42,1.24-4.49,3.16-6.04,5.39c-3.07,4.42-3.96,10.26-2.29,15.38c1.56,4.8,5.2,8.9,9.84,10.91 c1.3,0.56,2.66,0.95,4.06,1.11c1.53,0.18,3.11,0.16,4.57,0.68c2.35,0.84,3.72,2.9,4.28,5.25c0.68,2.83,0.66,5.8,1.96,8.46 c1.2,2.46,3.08,4.57,5.3,6.16c4.37,3.14,10.17,4.14,15.33,2.59c4.81-1.45,9.34-5.06,11.14-9.84c1.02-2.7,0.91-5.63,1.78-8.35 c0.76-2.38,2.48-4,4.9-4.62c2.84-0.73,5.77-0.5,8.49-1.73c2.46-1.12,4.62-2.93,6.26-5.07c3.24-4.23,4.4-9.91,3.17-15.08 C189.12,113.1,187.97,110.7,186.32,108.71 M149.01,126.07c-3.3,0.11-6.2-2.93-6.21-6.17c-0.01-3.27,2.9-6.23,6.18-6.24 c3.28-0.01,6.24,2.92,6.23,6.21C155.21,123.14,152.28,126.07,149.01,126.07"
       id="path3073" />
    <path
       d="M376.4,108.71c-3.4-4.12-8.68-5.65-13.75-6.43c-2.29-0.35-4.66-1.53-5.51-3.83 c-0.51-1.37-0.45-2.85-0.61-4.28c-0.17-1.51-0.52-3-1.08-4.42c-3.33-8.41-13.66-13.25-22.22-10.18 c-4.66,1.67-8.49,5.43-10.37,9.99c-0.56,1.36-0.96,2.79-1.14,4.25c-0.18,1.51-0.13,3.07-0.68,4.51c-0.89,2.3-3.17,3.5-5.47,3.99 c-2.87,0.62-5.87,0.7-8.53,2.05c-2.42,1.24-4.49,3.16-6.04,5.39c-3.08,4.42-3.96,10.26-2.29,15.38c1.56,4.8,5.2,8.9,9.84,10.91 c1.3,0.56,2.66,0.95,4.06,1.11c1.52,0.18,3.1,0.16,4.56,0.68c2.34,0.83,3.71,2.87,4.28,5.21c0.7,2.85,0.67,5.83,1.99,8.51 c1.2,2.46,3.08,4.57,5.3,6.16c4.38,3.14,10.18,4.14,15.35,2.58c4.64-1.4,9.18-4.88,10.98-9.49c1.36-3.5,0.74-7.82,3.05-10.95 c1.45-1.97,3.85-2.5,6.15-2.78c2.92-0.36,5.57-0.77,8.09-2.41c4.51-2.94,7.38-7.93,7.86-13.27 C380.62,116.89,379.3,112.22,376.4,108.71 M339.09,126.07c-3.3,0.11-6.2-2.93-6.21-6.17c-0.01-3.27,2.9-6.23,6.18-6.24 c3.28-0.01,6.24,2.92,6.23,6.21C345.29,123.14,342.36,126.07,339.09,126.07"
       id="path3075" />
    <path
       d="M434.13,173.6c-4.22-0.07-7.47-5.07-5.59-8.91c1.09-2.23,3.54-3.12,5.83-3.52c2.83-0.5,5.74-0.82,8.31-2.21 c7.86-4.25,11.14-15.1,7.21-23.06c-3.97-8.05-14.52-11.9-22.76-8.36c-4.5,1.93-8.36,5.83-9.69,10.6c-0.71,2.53-0.33,5.3-1.36,7.75 c-1.01,2.4-3.27,3.4-5.69,3.9c-2.78,0.57-5.6,0.9-8.19,2.14c-2.45,1.17-4.56,3.08-6.12,5.29c-1.66,2.37-2.54,5.11-3.02,7.94 c-0.38,2.26-0.49,4.79-2.11,6.58c-1.88,2.06-4.91,1.88-7.44,2.21c-2.73,0.35-5.31,1.55-7.49,3.22c-2.19,1.67-4.08,3.85-5.22,6.36 c-1.23,2.69-1.12,5.65-1.86,8.46c-0.66,2.48-2.21,4.22-4.66,5.03c-2.69,0.89-5.6,0.84-8.28,1.81c-4.78,1.72-8.75,6.28-10.01,11.18 c-0.62,2.43-0.31,5.08-1.33,7.41c-1.08,2.47-3.52,3.39-6,3.81c-2.7,0.46-5.41,0.82-7.9,2.05c-2.44,1.2-4.53,3.14-6.05,5.38 c-5.02,7.38-3.42,18.37,3.64,23.88c7.03,5.49,17.88,4.22,23.83-2.27c1.69-1.84,2.91-4.04,3.55-6.46c0.66-2.47,0.53-5.19,1.54-7.56 c1.05-2.49,3.3-3.41,5.83-3.82c2.89-0.47,5.61-0.76,8.24-2.19c2.44-1.33,4.49-3.28,5.99-5.62c1.65-2.59,2.3-5.39,2.78-8.39 c0.38-2.39,0.85-4.8,2.98-6.26c2.28-1.56,5.33-1.41,7.92-2.01c4.75-1.1,9.04-4.47,11.17-8.87c1.64-3.41,1.35-7.34,2.93-10.75 c1.75-3.78,6.85-4.49,9.67-1.37c1.88,2.09,1.96,5.14,2.43,7.76c0.45,2.51,1.42,4.88,2.93,6.94c5.61,7.67,16.65,8.78,24.25,3.46 c7.58-5.3,9.05-15.71,4.22-23.38C445.49,176.77,440.05,173.6,434.13,173.6"
       id="path3077" />
  </g>
</svg>
